<?xml version="1.0" standalone="no"?>
<!DOCTYPE svg PUBLIC "-//W3C//DTD SVG 20010904//EN"
 "http://www.w3.org/TR/2001/REC-SVG-20010904/DTD/svg10.dtd">
<svg version="1.0" xmlns="http://www.w3.org/2000/svg"
 width="94.000000pt" height="101.000000pt" viewBox="0 0 94.000000 101.000000"
 preserveAspectRatio="xMidYMid meet">

<g transform="translate(0.000000,101.000000) scale(0.100000,-0.100000)"
fill="#000000" stroke="none">
<path d="M354 881 c-69 -17 -118 -68 -137 -139 -10 -41 -20 -57 -44 -71 -54
-34 -78 -86 -78 -171 0 -96 22 -141 86 -183 20 -14 28 -28 32 -63 10 -89 93
-167 176 -165 36 1 72 1 145 1 85 0 166 83 166 171 0 30 6 39 38 60 53 34 82
97 82 176 0 82 -17 121 -73 168 -32 27 -46 47 -50 72 -13 80 -97 149 -177 146
-19 -1 -46 -3 -60 -3 -14 -1 -36 1 -50 3 -14 3 -39 2 -56 -2z m70 -11 c25 -9
26 -12 26 -98 l0 -88 -45 -44 c-25 -24 -45 -49 -45 -54 0 -6 22 11 48 37 l48
47 33 -34 c18 -19 39 -45 45 -58 15 -29 40 -30 44 0 2 16 -2 22 -14 22 -10 0
-38 19 -61 42 l-43 42 0 86 c0 81 2 87 23 96 12 6 32 8 45 6 17 -3 22 -10 22
-36 0 -17 -5 -37 -11 -43 -15 -15 -3 -33 22 -33 20 0 27 34 9 45 -14 9 -12 55
3 55 29 0 79 -43 97 -83 32 -70 28 -82 -29 -85 -27 -2 -52 2 -56 8 -8 13 -42
13 -50 0 -12 -19 15 -41 35 -30 28 15 127 12 160 -5 25 -13 60 -60 60 -80 0
-10 -96 -5 -106 5 -14 14 -44 2 -44 -16 0 -19 29 -29 43 -15 6 6 34 11 63 11
58 0 64 -6 64 -72 l0 -40 -62 4 c-51 2 -63 0 -63 -12 0 -12 12 -14 58 -12 42
3 57 0 57 -10 0 -22 -36 -74 -67 -96 l-30 -21 -38 39 c-20 21 -42 49 -49 62
-14 27 -39 31 -44 6 -2 -11 5 -21 20 -27 13 -5 41 -27 62 -49 37 -39 39 -43
32 -88 -8 -63 -34 -104 -82 -131 -21 -13 -42 -23 -46 -23 -11 0 -10 64 2 76
14 14 -5 38 -24 31 -13 -5 -15 -15 -10 -46 4 -22 4 -47 0 -56 -5 -14 -8 -14
-36 0 -30 16 -30 16 -30 105 l0 90 53 0 c29 0 58 -5 65 -12 8 -8 15 -8 27 2
14 12 14 15 1 29 -12 12 -18 12 -28 3 -7 -7 -36 -12 -65 -12 l-53 0 0 90 c0
82 2 90 19 90 11 0 22 -4 26 -10 9 -15 35 0 35 22 0 18 -4 19 -41 13 -34 -6
-44 -3 -65 16 -27 25 -33 15 -7 -13 16 -17 15 -20 -15 -51 -43 -45 -41 -59 3
-17 l35 34 0 -59 0 -60 -72 -72 c-40 -40 -68 -73 -61 -73 6 0 16 7 23 15 16
19 29 19 52 -2 11 -10 18 -12 18 -4 0 6 -7 14 -15 17 -24 9 -18 27 20 64 l35
34 0 -116 c0 -127 0 -128 -65 -128 -42 0 -56 19 -27 38 12 8 22 19 22 24 0 5
-16 -3 -35 -18 l-35 -27 -34 36 c-22 23 -38 54 -46 88 l-12 51 63 64 c35 35
59 64 54 64 -5 0 -21 -11 -35 -25 l-26 -25 -24 25 c-13 14 -28 25 -34 25 -5 0
3 -13 19 -30 28 -29 28 -30 10 -50 -25 -28 -47 -25 -83 9 -52 50 -51 67 7 124
l50 51 31 -29 c16 -16 30 -24 30 -19 0 6 -11 21 -25 34 l-25 24 37 38 c20 21
33 38 28 38 -5 0 -48 -39 -96 -86 l-86 -86 -6 32 c-7 32 6 108 23 140 5 9 25
29 45 45 l37 27 29 -28 c16 -15 29 -23 29 -18 0 6 -11 21 -24 34 -20 18 -24
29 -19 54 12 64 52 115 106 135 l27 11 0 -56 c0 -41 -5 -63 -20 -81 -11 -15
-18 -28 -15 -31 3 -3 13 4 21 17 l16 22 25 -23 c25 -23 26 -23 14 -1 -6 12
-16 25 -21 28 -15 9 -13 122 3 128 6 3 13 6 14 6 1 1 13 -3 27 -9z m146 -90
c0 -5 -4 -10 -10 -10 -5 0 -10 5 -10 10 0 6 5 10 10 10 6 0 10 -4 10 -10z m0
-90 c0 -5 -4 -10 -10 -10 -5 0 -10 5 -10 10 0 6 5 10 10 10 6 0 10 -4 10 -10z
m0 -109 c0 -6 -4 -13 -10 -16 -5 -3 -10 1 -10 9 0 9 5 16 10 16 6 0 10 -4 10
-9z m104 -12 c-3 -5 -10 -7 -15 -3 -5 3 -7 10 -3 15 3 5 10 7 15 3 5 -3 7 -10
3 -15z m-144 -69 c0 -5 -4 -10 -10 -10 -5 0 -10 5 -10 10 0 6 5 10 10 10 6 0
10 -4 10 -10z m190 -50 c0 -5 -4 -10 -10 -10 -5 0 -10 5 -10 10 0 6 5 10 10
10 6 0 10 -4 10 -10z m-120 -40 c0 -5 -4 -10 -10 -10 -5 0 -10 5 -10 10 0 6 5
10 10 10 6 0 10 -4 10 -10z m0 -104 c0 -3 -4 -8 -10 -11 -5 -3 -10 -1 -10 4 0
6 5 11 10 11 6 0 10 -2 10 -4z m-50 -122 c0 -8 -4 -12 -10 -9 -5 3 -10 10 -10
16 0 5 5 9 10 9 6 0 10 -7 10 -16z"/>
</g>
</svg>
